<svg xmlns="http://www.w3.org/2000/svg" xmlns:xlink="http://www.w3.org/1999/xlink" version="1.1" x="0px" y="0px" viewBox="10 10 80 80" enable-background="new 0 0 100 100" xml:space="preserve"><path d="M75.6,40H74v-1c0-2.8-2.2-5-5-5H49.4l-6.5-6.5C42,26.6,40.7,26,39.4,26H23c-2.8,0-5,2.2-5,5v38c0,2.8,2.2,5,5,5h45.1  c2.2,0,4.101-1.4,4.801-3.5l7.5-24C81.258,43.281,79.045,40,75.6,40z M20,31c0-1.7,1.3-3,3-3h16.3c0.8,0,1.6,0.3,2.1,0.9l6.8,6.8  c0.2,0.2,0.4,0.3,0.7,0.3h20c1.699,0,3,1.3,3,3v1h-40c-2.2,0-4.1,1.4-4.8,3.5L20,66.4V31z M78.4,45.9l-7.5,24  C70.5,71.2,69.4,72,68,72H23c-1.18,0-2.345-1.166-1.9-2.5L29,44.1c0.4-1.3,1.5-2.1,2.9-2.1h43.6C77.685,42,78.97,44.19,78.4,45.9z"/><text x="0" y="115" fill="#000000" font-size="5px" font-weight="bold" font-family="'Helvetica Neue', Helvetica, Arial-Unicode, Arial, Sans-serif">Created by Setyo Ari Wibowo</text><text x="0" y="120" fill="#000000" font-size="5px" font-weight="bold" font-family="'Helvetica Neue', Helvetica, Arial-Unicode, Arial, Sans-serif">from the Noun Project</text></svg>