<svg xmlns="http://www.w3.org/2000/svg" xmlns:xlink="http://www.w3.org/1999/xlink" version="1.1" x="0px" y="0px" viewBox="15 15 70 70" style="enable-background:new 0 0 100 100;" xml:space="preserve"><path d="M70,45h-2v-7.5C68,27.299,59.701,19,49.5,19S31,27.299,31,37.5V45h-1c-2.757,0-5,2.243-5,5v26c0,2.757,2.243,5,5,5h40  c2.757,0,5-2.243,5-5V50C75,47.243,72.757,45,70,45z M33,37.5C33,28.402,40.402,21,49.5,21C58.598,21,66,28.402,66,37.5V45h-4v-7.5  C62,30.607,56.393,25,49.5,25S37,30.607,37,37.5V45h-4V37.5z M60,45H39v-7.5C39,31.71,43.71,27,49.5,27C55.29,27,60,31.71,60,37.5  V45z M73,76c0,1.654-1.346,3-3,3H30c-1.654,0-3-1.346-3-3V50c0-1.654,1.346-3,3-3h40c1.654,0,3,1.346,3,3V76z M50,55  c-2.206,0-4,1.794-4,4v8c0,2.206,1.794,4,4,4c2.206,0,4-1.794,4-4v-8C54,56.794,52.206,55,50,55z M52,67c0,1.103-0.897,2-2,2  c-1.103,0-2-0.897-2-2v-8c0-1.103,0.897-2,2-2c1.103,0,2,0.897,2,2V67z"/><text x="0" y="115" fill="#000000" font-size="5px" font-weight="bold" font-family="'Helvetica Neue', Helvetica, Arial-Unicode, Arial, Sans-serif">Created by Setyo Ari Wibowo</text><text x="0" y="120" fill="#000000" font-size="5px" font-weight="bold" font-family="'Helvetica Neue', Helvetica, Arial-Unicode, Arial, Sans-serif">from the Noun Project</text></svg>