<svg xmlns="http://www.w3.org/2000/svg" xmlns:xlink="http://www.w3.org/1999/xlink" version="1.1" x="0px" y="0px" viewBox="0 0 64 64" enable-background="new 0 0 64 64" xml:space="preserve"><path d="M51.172,52.828H12.828c-1.036,0-1.879-0.843-1.879-1.879V13.051c0-1.036,0.843-1.879,1.879-1.879h38.344   c1.036,0,1.879,0.843,1.879,1.879v37.898C53.051,51.985,52.208,52.828,51.172,52.828z M13.035,50.742h37.93V13.258h-37.93V50.742z"/><path d="M32,17.074c0.419,0,0.759-0.34,0.759-0.759v-1.518c0-0.419-0.34-0.759-0.759-0.759s-0.759,0.34-0.759,0.759v1.518    C31.241,16.734,31.581,17.074,32,17.074z"/><path d="M32,35.519c-0.419,0-0.759,0.34-0.759,0.759v2.852c0,0.419,0.34,0.759,0.759,0.759s0.759-0.34,0.759-0.759v-2.852    C32.759,35.859,32.419,35.519,32,35.519z"/><path d="M32,41.223c-0.419,0-0.759,0.34-0.759,0.759v2.852c0,0.419,0.34,0.759,0.759,0.759s0.759-0.34,0.759-0.759v-2.852    C32.759,41.562,32.419,41.223,32,41.223z"/><path d="M32,28.481c0.419,0,0.759-0.34,0.759-0.759V24.87c0-0.419-0.34-0.759-0.759-0.759s-0.759,0.34-0.759,0.759v2.852    C31.241,28.141,31.581,28.481,32,28.481z"/><path d="M32,22.777c0.419,0,0.759-0.34,0.759-0.759v-2.852c0-0.419-0.34-0.759-0.759-0.759s-0.759,0.34-0.759,0.759v2.852    C31.241,22.438,31.581,22.777,32,22.777z"/><path d="M32,46.926c-0.419,0-0.759,0.34-0.759,0.759v1.518c0,0.419,0.34,0.759,0.759,0.759s0.759-0.34,0.759-0.759v-1.518    C32.759,47.266,32.419,46.926,32,46.926z"/><path d="M16.315,31.241h-1.518c-0.419,0-0.759,0.34-0.759,0.759c0,0.419,0.34,0.759,0.759,0.759h1.518    c0.419,0,0.759-0.34,0.759-0.759C17.074,31.581,16.734,31.241,16.315,31.241z"/><path d="M22.018,31.241h-2.852c-0.419,0-0.759,0.34-0.759,0.759c0,0.419,0.34,0.759,0.759,0.759h2.852    c0.419,0,0.759-0.34,0.759-0.759C22.777,31.581,22.438,31.241,22.018,31.241z"/><path d="M39.13,31.241h-2.852c-0.419,0-0.759,0.34-0.759,0.759c0,0.419,0.34,0.759,0.759,0.759h2.852    c0.419,0,0.759-0.34,0.759-0.759C39.889,31.581,39.549,31.241,39.13,31.241z"/><path d="M44.833,31.241h-2.852c-0.419,0-0.759,0.34-0.759,0.759c0,0.419,0.34,0.759,0.759,0.759h2.852    c0.419,0,0.759-0.34,0.759-0.759C45.592,31.581,45.253,31.241,44.833,31.241z"/><path d="M33.426,31.241h-0.667v-0.667c0-0.419-0.34-0.759-0.759-0.759s-0.759,0.34-0.759,0.759v0.667h-0.667    c-0.419,0-0.759,0.34-0.759,0.759c0,0.419,0.34,0.759,0.759,0.759h0.667v0.667c0,0.419,0.34,0.759,0.759,0.759    s0.759-0.34,0.759-0.759v-0.667h0.667c0.419,0,0.759-0.34,0.759-0.759C34.185,31.581,33.845,31.241,33.426,31.241z"/><path d="M27.722,31.241H24.87c-0.419,0-0.759,0.34-0.759,0.759c0,0.419,0.34,0.759,0.759,0.759h2.852    c0.419,0,0.759-0.34,0.759-0.759C28.481,31.581,28.141,31.241,27.722,31.241z"/><path d="M49.203,31.241h-1.518c-0.419,0-0.759,0.34-0.759,0.759c0,0.419,0.34,0.759,0.759,0.759h1.518    c0.419,0,0.759-0.34,0.759-0.759C49.962,31.581,49.623,31.241,49.203,31.241z"/><path d="M53.305,8.898c-0.513,0-0.929-0.416-0.929-0.929V4.006c0-0.513,0.416-0.929,0.929-0.929c0.513,0,0.929,0.416,0.929,0.929    v3.964C54.235,8.482,53.819,8.898,53.305,8.898z"/><path d="M60.738,11.871h-3.964c-0.513,0-0.929-0.416-0.929-0.929s0.416-0.929,0.929-0.929h3.964c0.513,0,0.929,0.416,0.929,0.929    S61.251,11.871,60.738,11.871z"/><path d="M10.695,8.898c-0.513,0-0.929-0.416-0.929-0.929V4.006c0-0.513,0.416-0.929,0.929-0.929s0.929,0.416,0.929,0.929v3.964    C11.624,8.482,11.208,8.898,10.695,8.898z"/><path d="M7.226,11.871H3.262c-0.513,0-0.929-0.416-0.929-0.929s0.416-0.929,0.929-0.929h3.964c0.513,0,0.929,0.416,0.929,0.929    S7.739,11.871,7.226,11.871z"/><path d="M53.305,60.923c-0.513,0-0.929-0.416-0.929-0.929v-3.964c0-0.513,0.416-0.929,0.929-0.929    c0.513,0,0.929,0.416,0.929,0.929v3.964C54.235,60.507,53.819,60.923,53.305,60.923z"/><path d="M60.738,53.987h-3.964c-0.513,0-0.929-0.416-0.929-0.929s0.416-0.929,0.929-0.929h3.964c0.513,0,0.929,0.416,0.929,0.929    S61.251,53.987,60.738,53.987z"/><path d="M10.695,60.923c-0.513,0-0.929-0.416-0.929-0.929v-3.964c0-0.513,0.416-0.929,0.929-0.929s0.929,0.416,0.929,0.929v3.964    C11.624,60.507,11.208,60.923,10.695,60.923z"/><path d="M7.226,53.987H3.262c-0.513,0-0.929-0.416-0.929-0.929s0.416-0.929,0.929-0.929h3.964c0.513,0,0.929,0.416,0.929,0.929    S7.739,53.987,7.226,53.987z"/><text x="0" y="79" fill="#000000" font-size="5px" font-weight="bold" font-family="'Helvetica Neue', Helvetica, Arial-Unicode, Arial, Sans-serif">Created by Arafat Uddin</text><text x="0" y="84" fill="#000000" font-size="5px" font-weight="bold" font-family="'Helvetica Neue', Helvetica, Arial-Unicode, Arial, Sans-serif">from the Noun Project</text></svg>