<svg xmlns="http://www.w3.org/2000/svg" xmlns:xlink="http://www.w3.org/1999/xlink" version="1.1" x="0px" y="0px" viewBox="10 10 80 80" style="enable-background:new 0 0 100 100;" xml:space="preserve"><path d="M75.9,31h6.8L71.7,43.4l1.5,1.3l12.5-14.2L73.2,16.3l-1.5,1.3l10,11.3h-5.8c-5.9,0-11.6,2.5-15.6,7L36.2,62.7   c-3.6,4-8.7,6.3-14.1,6.3h-6.5v2h6.5c5.9,0,11.6-2.5,15.6-7l24.1-26.8C65.4,33.3,70.5,31,75.9,31z"/><path d="M36.2,37.3l5.1,5.6l1.5-1.3L37.7,36c-4-4.4-9.7-7-15.6-7h-6.5v2h6.5C27.5,31,32.6,33.3,36.2,37.3z"/><path d="M71.7,56.6L82.7,69h-6.8c-5.4,0-10.5-2.3-14.1-6.3l-5.5-6.1l-1.5,1.3l5.5,6.1c4,4.4,9.7,7,15.6,7h5.8l-10,11.3l1.5,1.3   l12.5-14.2L73.2,55.3L71.7,56.6z"/><text x="0" y="115" fill="#000000" font-size="5px" font-weight="bold" font-family="'Helvetica Neue', Helvetica, Arial-Unicode, Arial, Sans-serif">Created by Ananth</text><text x="0" y="120" fill="#000000" font-size="5px" font-weight="bold" font-family="'Helvetica Neue', Helvetica, Arial-Unicode, Arial, Sans-serif">from the Noun Project</text></svg>