<svg xmlns="http://www.w3.org/2000/svg" xmlns:xlink="http://www.w3.org/1999/xlink" version="1.1" x="0px" y="0px" viewBox="10 10 70 70" style="enable-background:new 0 0 90 90;" xml:space="preserve"><style type="text/css">
	.st3{fill:none;stroke:#000000;stroke-width:1.4173;stroke-linecap:round;stroke-linejoin:round;stroke-miterlimit:10;}
	.st4{fill:none;stroke:#000000;stroke-width:1.3941;stroke-linecap:round;stroke-linejoin:round;stroke-miterlimit:10;}
</style><polyline class="st3" points="48.1,70.5 61.7,62.6 68.6,58.7 72,56.7 72.8,56.2 73.2,55.9 73.5,55.6 73.8,55.3 73.9,55 74,54.6     73.9,54.3   "/><polyline class="st3" points="16,54.2 16,54.7 16.1,55.1 16.3,55.5 16.7,55.8 17.1,56.2 17.6,56.5 18.6,57 22.6,59.4 30.7,64     38.7,68.7 40.7,69.8 41.7,70.4 42.2,70.7 42.8,70.9 43.5,71.1 44.2,71.2 44.9,71.3 45.6,71.2 46.3,71.1 46.9,71 47.5,70.8     48.1,70.5   "/><polyline class="st3" points="70.5,39.1 70.8,38.7 71,38.3 71.1,37.9 71.1,37.6 71,37.2 70.7,36.8 70.4,36.5 69.9,36.2 66,33.9     58.2,29.4 50.4,24.9 48.4,23.7 47.9,23.5 47.4,23.2 46.8,23 46.2,22.8 45.5,22.8 44.8,22.7 44.1,22.8 43.5,22.9 42.9,23.1     42.3,23.4 41.4,24   "/><polyline class="st3" points="20.7,35.9 20.2,36.2 19.7,36.5 19.4,36.8 19.1,37.2 19,37.6 19,38 19.1,38.3 19.3,38.7 19.6,39.1     20.1,39.4 21,39.9 22.9,41 30.6,45.4 38.2,49.8 42,52.1 42.5,52.3 43,52.6 43.7,52.7 44.3,52.8 45,52.9 45.6,52.9 46.3,52.8     46.9,52.6   "/><line class="st3" x1="16" y1="54.2" x2="19" y2="37.6"/><line class="st3" x1="71.1" y1="37.6" x2="73.9" y2="54.3"/><polyline class="st3" points="46.9,52.6 49.5,51.8 52.1,50.9 54.7,49.8 57.1,48.6 59.5,47.3 61.9,45.9 64.2,44.3 66.4,42.7     68.5,40.9 70.5,39.1   "/><polyline class="st3" points="20.7,35.9 23.2,35 25.7,34.1 28.1,32.9 30.5,31.7 32.8,30.4 35.1,28.9 37.2,27.4 39.3,25.7 41.4,24       "/><polyline class="st4" points="48.2,71.3 62.3,63.2 69.4,59.1 73,57 73.8,56.5 74.2,56.2 74.5,55.9 74.8,55.6 74.9,55.2 75,54.9     75,54.5   "/><polyline class="st4" points="15,54.5 15,54.9 15.1,55.4 15.3,55.8 15.7,56.1 16.1,56.5 16.6,56.8 17.6,57.4 21.8,59.8 30.2,64.6     38.5,69.4 40.6,70.6 41.6,71.2 42.1,71.5 42.7,71.8 43.4,71.9 44.1,72.1 44.8,72.1 45.6,72.1 46.3,72 47,71.8 47.6,71.6     48.2,71.3   "/><polyline class="st4" points="72.1,37.3 72,37.2 71.9,36.8 71.6,36.4 71.3,36.1 70.8,35.8 66.7,33.4 58.6,28.8 50.5,24.1     48.5,22.9 48,22.6 47.5,22.3 46.9,22.1 46.2,22 45.5,21.9 44.8,21.9 44.1,22 43.4,22.1 42.8,22.3 42.2,22.5 41.2,23.1   "/><line class="st4" x1="72.1" y1="37.4" x2="72.1" y2="37.3"/><polyline class="st4" points="19.8,35.5 19.3,35.8 18.8,36.1 18.5,36.5 18.2,36.8 18.1,37.2 18.1,37.4   "/><line class="st4" x1="15" y1="54.5" x2="18.1" y2="37.4"/><line class="st4" x1="72.1" y1="37.3" x2="75" y2="54.5"/><line class="st4" x1="72.1" y1="37.3" x2="72.1" y2="37.3"/><polyline class="st4" points="19.8,35.5 22.4,34.6 25,33.6 27.5,32.4 30,31.2 32.4,29.8 34.7,28.3 37,26.7 39.1,25 41.2,23.1       "/><text x="0" y="105" fill="#000000" font-size="5px" font-weight="bold" font-family="'Helvetica Neue', Helvetica, Arial-Unicode, Arial, Sans-serif">Created by Pedro Martínez</text><text x="0" y="110" fill="#000000" font-size="5px" font-weight="bold" font-family="'Helvetica Neue', Helvetica, Arial-Unicode, Arial, Sans-serif">from the Noun Project</text></svg>